<?xml version="1.0" encoding="UTF-8" standalone="no"?>
<svg
   width="20"
   height="20"
   viewBox="0 0 20 20"
   fill="none"
   version="1.1"
   id="svg3"
   sodipodi:docname="logcat_trans@20x20_dark.svg"
   inkscape:version="1.3 (0e150ed6c4, 2023-07-21)"
   inkscape:export-filename="logcat_trans_dark.svg"
   inkscape:export-xdpi="76.800003"
   inkscape:export-ydpi="76.800003"
   xmlns:inkscape="http://www.inkscape.org/namespaces/inkscape"
   xmlns:sodipodi="http://sodipodi.sourceforge.net/DTD/sodipodi-0.dtd"
   xmlns:xlink="http://www.w3.org/1999/xlink"
   xmlns="http://www.w3.org/2000/svg"
   xmlns:svg="http://www.w3.org/2000/svg">
  <defs
     id="defs3">
    <linearGradient
       inkscape:collect="always"
       xlink:href="#linearGradient13"
       id="linearGradient29"
       x1="4.2501955"
       y1="5"
       x2="4.2504277"
       y2="17"
       gradientUnits="userSpaceOnUse" />
    <linearGradient
       id="linearGradient13"
       inkscape:label="Trans">
      <stop
         style="stop-color:#60cdf6;stop-opacity:1;"
         offset="0"
         id="stop18" />
      <stop
         style="stop-color:#60cdf6;stop-opacity:1;"
         offset="0.2"
         id="stop23" />
      <stop
         style="stop-color:#f7a9b8;stop-opacity:1;"
         offset="0.2"
         id="stop19" />
      <stop
         style="stop-color:#f7a9b8;stop-opacity:1;"
         offset="0.40000001"
         id="stop24" />
      <stop
         style="stop-color:#ffffff;stop-opacity:1;"
         offset="0.40000001"
         id="stop20" />
      <stop
         style="stop-color:#ffffff;stop-opacity:1;"
         offset="0.60000002"
         id="stop25" />
      <stop
         style="stop-color:#f7a9b8;stop-opacity:1;"
         offset="0.60000002"
         id="stop21" />
      <stop
         style="stop-color:#f7a9b8;stop-opacity:1;"
         offset="0.80000001"
         id="stop26" />
      <stop
         style="stop-color:#60cdf6;stop-opacity:1;"
         offset="0.80000001"
         id="stop27" />
      <stop
         style="stop-color:#60cdf6;stop-opacity:1;"
         offset="1"
         id="stop22" />
    </linearGradient>
  </defs>
  <sodipodi:namedview
     id="namedview3"
     pagecolor="#505050"
     bordercolor="#ffffff"
     borderopacity="1"
     inkscape:showpageshadow="0"
     inkscape:pageopacity="0"
     inkscape:pagecheckerboard="1"
     inkscape:deskcolor="#d1d1d1"
     inkscape:zoom="44.6"
     inkscape:cx="9.9887892"
     inkscape:cy="10.941704"
     inkscape:window-width="1920"
     inkscape:window-height="1129"
     inkscape:window-x="0"
     inkscape:window-y="34"
     inkscape:window-maximized="0"
     inkscape:current-layer="svg3" />
  <path
     id="path27"
     style="fill:url(#linearGradient29);fill-opacity:1;stroke-width:0.498436;stroke-dasharray:none"
     d="M 2.4003906,5 C 1.0746021,4.9997843 -2.1570753e-4,6.0746021 3.2472201e-8,7.4003906 -2.1570753e-4,8.7261791 1.0746021,9.8009969 2.4003906,9.8007812 V 14.599609 C 2.4001746,15.925398 3.4749926,17.000216 4.8007812,17 H 7.9 L 6.1,5 Z"
     sodipodi:nodetypes="cccccccc" />
  <path
     d="M14.625 7.563L17.4 4.836a.5.5 0 0 1 .851.357v8.557a3 3 0 0 1-3 3h-5.5a3 3 0 0 1-3-3V5.193a.5.5 0 0 1 .85-.357l2.775 2.727a1 1 0 0 0 .7.287h2.85a1 1 0 0 0 .7-.287z"
     stroke="#CED0D6"
     stroke-width="1.5"
     stroke-linecap="round"
     id="path1" />
  <circle
     cx="10"
     cy="11"
     r="1"
     fill="#CED0D6"
     id="circle1" />
  <circle
     cx="15"
     cy="11"
     r="1"
     fill="#CED0D6"
     id="circle2" />
  <path
     d="M12.665 14.606a.25.25 0 0 1-.33 0l-1.334-1.168a.25.25 0 0 1 .164-.438h2.67a.25.25 0 0 1 .164.438l-1.334 1.168z"
     fill="#CED0D6"
     id="path3" />
</svg>
