<?xml version="1.0" encoding="UTF-8" standalone="no"?>
<svg width="20" height="20" viewBox="0 0 20 20" fill="none" version="1.1" id="svg3"
    xmlns:xlink="http://www.w3.org/1999/xlink" xmlns="http://www.w3.org/2000/svg">
    <defs id="defs3">
        <linearGradient xlink:href="#linearGradient13" id="linearGradient29" x1="4.2501955" y1="5" x2="4.2504277"
            y2="17" gradientUnits="userSpaceOnUse" />
        <linearGradient id="linearGradient13">
            <stop style="stop-color:#60cdf6;stop-opacity:1;" offset="0" id="stop18" />
            <stop style="stop-color:#60cdf6;stop-opacity:1;" offset="0.2" id="stop23" />
            <stop style="stop-color:#f7a9b8;stop-opacity:1;" offset="0.2" id="stop19" />
            <stop style="stop-color:#f7a9b8;stop-opacity:1;" offset="0.40000001" id="stop24" />
            <stop style="stop-color:#ffffff;stop-opacity:1;" offset="0.40000001" id="stop20" />
            <stop style="stop-color:#ffffff;stop-opacity:1;" offset="0.60000002" id="stop25" />
            <stop style="stop-color:#f7a9b8;stop-opacity:1;" offset="0.60000002" id="stop21" />
            <stop style="stop-color:#f7a9b8;stop-opacity:1;" offset="0.80000001" id="stop26" />
            <stop style="stop-color:#60cdf6;stop-opacity:1;" offset="0.80000001" id="stop27" />
            <stop style="stop-color:#60cdf6;stop-opacity:1;" offset="1" id="stop22" />
        </linearGradient>
    </defs>
    <path id="path27" style="fill:url(#linearGradient29);fill-opacity:1;stroke-width:0.498436;stroke-dasharray:none"
        d="M 2.4003906,5 C 1.0746021,4.9997843 -2.1570753e-4,6.0746021 3.2472201e-8,7.4003906 -2.1570753e-4,8.7261791 1.0746021,9.8009969 2.4003906,9.8007812 V 14.599609 C 2.4001746,15.925398 3.4749926,17.000216 4.8007812,17 H 7.9 L 6.1,5 Z" />
    <path
        d="M 14.625,7.563 17.4,4.836 a 0.5,0.5 0 0 1 0.851,0.357 v 8.557 a 3,3 0 0 1 -3,3 h -5.5 a 3,3 0 0 1 -3,-3 V 5.193 a 0.5,0.5 0 0 1 0.85,-0.357 l 2.775,2.727 a 1,1 0 0 0 0.7,0.287 h 2.85 a 1,1 0 0 0 0.7,-0.287 z"
        stroke="#ced0d6" stroke-width="1.5" stroke-linecap="round" id="path1" />
    <circle cx="10" cy="11" r="1" fill="#ced0d6" id="circle1" />
    <circle cx="15" cy="11" r="1" fill="#ced0d6" id="circle2" />
    <path
        d="m 12.665,14.606 a 0.25,0.25 0 0 1 -0.33,0 L 11.001,13.438 A 0.25,0.25 0 0 1 11.165,13 h 2.67 a 0.25,0.25 0 0 1 0.164,0.438 z"
        fill="#ced0d6" id="path3" />
</svg>
